<svg width="20" height="21" viewBox="0 0 20 21" fill="none" xmlns="http://www.w3.org/2000/svg">
<path fill-rule="evenodd" clip-rule="evenodd" d="M0 10.5C0 4.97715 4.47715 0.5 10 0.5C15.5228 0.5 20 4.97715 20 10.5C20 16.0228 15.5228 20.5 10 20.5C4.47715 20.5 0 16.0228 0 10.5ZM10 2.5C5.58172 2.5 2 6.08172 2 10.5C2 14.9183 5.58172 18.5 10 18.5C14.4183 18.5 18 14.9183 18 10.5C18 6.08172 14.4183 2.5 10 2.5Z" fill="#EB1B24"/>
<path fill-rule="evenodd" clip-rule="evenodd" d="M9.29289 5.79289C9.68342 5.40237 10.3166 5.40237 10.7071 5.79289L14.7071 9.79289C14.8946 9.98043 15 10.2348 15 10.5C15 10.7652 14.8946 11.0196 14.7071 11.2071L10.7071 15.2071C10.3166 15.5976 9.68342 15.5976 9.29289 15.2071C8.90237 14.8166 8.90237 14.1834 9.29289 13.7929L11.5858 11.5H6C5.44772 11.5 5 11.0523 5 10.5C5 9.94772 5.44772 9.5 6 9.5H11.5858L9.29289 7.20711C8.90237 6.81658 8.90237 6.18342 9.29289 5.79289Z" fill="#EB1B24"/>
</svg>
