<svg width="51" height="51" viewBox="0 0 51 51" fill="none" xmlns="http://www.w3.org/2000/svg">
<circle cx="25.5" cy="25.5" r="25.25" stroke="#FFDA00" stroke-width="0.5"/>
<circle cx="25.5" cy="25.5" r="18.5" fill="#FFDA00"/>
<rect width="20" height="20" transform="translate(16 15)" fill="#FFDA00"/>
<path fill-rule="evenodd" clip-rule="evenodd" d="M26.7792 20.8229C26.9507 20.3958 27.4359 20.1886 27.863 20.36C28.5121 20.6206 29.0993 21.0145 29.5866 21.5162C30.074 22.0179 30.4506 22.6163 30.6922 23.2727C30.8512 23.7046 30.63 24.1836 30.1981 24.3426C29.7662 24.5016 29.2872 24.2804 29.1282 23.8485C28.9671 23.4109 28.716 23.012 28.3911 22.6775C28.0662 22.343 27.6748 22.0804 27.242 21.9067C26.8149 21.7352 26.6077 21.25 26.7792 20.8229Z" fill="#1A1A1A"/>
<path fill-rule="evenodd" clip-rule="evenodd" d="M27.136 17.5399C27.2551 17.0953 27.7121 16.8315 28.1566 16.9506C29.5696 17.3292 30.858 18.0731 31.8924 19.1074C32.9267 20.1418 33.6706 21.4302 34.0492 22.8432C34.1683 23.2877 33.9045 23.7447 33.4599 23.8638C33.0154 23.9829 32.5584 23.7191 32.4393 23.2745C32.1364 22.1442 31.5414 21.1134 30.7139 20.2859C29.8864 19.4584 28.8556 18.8634 27.7253 18.5605C27.2807 18.4414 27.0169 17.9844 27.136 17.5399Z" fill="#1A1A1A"/>
<path fill-rule="evenodd" clip-rule="evenodd" d="M20.1406 19.3462C22.1557 18.6741 24.1921 19.9364 24.7577 21.9801C25.1432 23.3727 24.7781 24.833 23.888 25.8329C24.0703 26.069 24.2695 26.296 24.4858 26.5124C24.701 26.7278 24.9266 26.9262 25.1613 27.1079C26.1608 26.2108 27.6255 25.8416 29.0221 26.2287C31.0654 26.7951 32.3254 28.8331 31.6543 30.8481C31.2139 32.1703 30.3929 32.9736 29.2978 33.238C28.2804 33.4837 27.1833 33.2225 26.2157 32.8203C24.2669 32.0102 22.3426 30.4144 21.4637 29.5349C20.5642 28.6347 18.9753 26.7076 18.1725 24.7625C17.7739 23.7966 17.5172 22.7036 17.7635 21.6907C18.0284 20.6011 18.8276 19.7841 20.1406 19.3462ZM23.1515 22.4246C22.8075 21.1821 21.6649 20.5947 20.6679 20.9273C19.7916 21.2195 19.4876 21.654 19.383 22.0845C19.2596 22.5918 19.3669 23.2876 19.7132 24.1266C20.4002 25.7914 21.8251 27.5387 22.6427 28.3569C23.4405 29.1553 25.1859 30.5873 26.8554 31.2813C27.697 31.6311 28.3963 31.7411 28.9066 31.6179C29.3395 31.5134 29.7779 31.2077 30.073 30.3215C30.4058 29.3222 29.8175 28.1787 28.577 27.8349C27.6537 27.579 26.7045 27.8754 26.1396 28.4804C25.7748 28.8711 25.0794 29.0938 24.4878 28.6809C24.0716 28.3903 23.6762 28.0601 23.3068 27.6905C22.9369 27.3202 22.6065 26.9239 22.3159 26.5067C21.9056 25.9176 22.1245 25.225 22.5124 24.8593C23.1129 24.2932 23.4065 23.346 23.1515 22.4246Z" fill="#1A1A1A"/>
</svg>
