<svg width="112" height="113" viewBox="0 0 112 113" fill="none" xmlns="http://www.w3.org/2000/svg">
<circle cx="55.845" cy="56.6677" r="55.845" fill="#FFDA00"/>
<path d="M96.6862 73.3084C90.7392 75.3924 84.9377 77.4264 78.9609 79.5229C77.7687 73.2849 76.614 67.2346 75.4218 60.9934C76.5374 61.6396 77.5669 62.2028 78.5635 62.8193C79.9826 63.6986 80.0029 63.7236 80.4536 62.1168C81.2139 59.4085 81.3063 56.6516 81.0528 53.8573C80.7618 50.6498 79.7135 47.6912 78.1505 44.925C76.4889 41.9851 74.4408 39.33 71.5714 37.4478C70.06 36.4558 68.5267 35.4466 66.8792 34.7269C65.3318 34.051 63.6217 33.7475 61.9851 33.2765C61.5689 33.1561 61.1559 33.0231 60.6427 32.8651C61.6832 31.9654 62.6876 31.0955 63.6937 30.2271C65.0298 29.0725 66.3644 27.9147 67.7068 26.7678C68.1449 26.3939 68.0526 26.0716 67.6662 25.743C66.3832 24.6462 65.0971 23.551 63.8204 22.4448C62.866 21.6172 61.9257 20.7754 60.8039 19.7834C61.8459 19.8648 62.6767 19.8366 63.4621 20.0072C65.2786 20.4015 67.0794 20.8677 68.8756 21.348C71.3492 22.0099 73.6429 23.1254 75.8599 24.3724C79.0892 26.1889 81.9712 28.4795 84.4918 31.1925C86.399 33.2453 88.059 35.4858 89.4891 37.9171C91.0677 40.602 92.1536 43.4762 93.0469 46.4207C93.5179 47.9728 93.7213 49.6172 93.9356 51.235C94.1891 53.1516 94.5145 55.0886 94.4629 57.0068C94.405 59.1347 94.0702 61.2735 93.6509 63.3669C93.2237 65.4932 92.5744 67.5772 91.9627 69.6628C91.7843 70.2715 91.9439 70.5641 92.4602 70.8426C93.6681 71.4966 94.8541 72.1912 96.0447 72.8734C96.2184 72.972 96.3764 73.0956 96.6878 73.3068L96.6862 73.3084Z" fill="#1A1A1A"/>
<path opacity="0.5" d="M49.67 14.334C54.5281 18.3472 59.2672 22.2634 64.1503 26.2985C59.4252 30.5417 54.8441 34.6581 50.1159 38.9044C50.0925 37.6168 50.0424 36.4433 50.0565 35.2714C50.0768 33.602 50.0878 33.5723 48.4778 34.0166C45.7664 34.7645 43.3585 36.1101 41.0976 37.7717C38.502 39.6789 36.5102 42.104 34.9503 44.8718C33.2919 47.8133 32.0778 50.9393 31.9495 54.3674C31.8822 56.1745 31.8102 58.0082 32.0449 59.7903C32.2655 61.4644 32.8898 63.0853 33.3326 64.7297C33.4452 65.149 33.5438 65.5715 33.6736 66.0925C32.3656 65.6669 31.103 65.2554 29.8388 64.8439C28.16 64.2963 26.4797 63.7534 24.8024 63.1964C24.2548 63.0149 24.0279 63.2605 23.945 63.7612C23.6681 65.4275 23.3958 67.0938 23.1095 68.7585C22.8952 70.0024 22.6589 71.2447 22.3914 72.717C21.922 71.7829 21.4698 71.0867 21.2085 70.3247C20.6077 68.5661 20.0758 66.7825 19.5595 64.9972C18.8476 62.5361 18.6176 59.9968 18.5394 57.4559C18.4251 53.7525 18.8976 50.1023 19.9178 46.5412C20.6891 43.847 21.7499 41.2685 23.0923 38.7887C24.574 36.049 26.475 33.6349 28.534 31.349C29.6198 30.1427 30.9231 29.1194 32.1967 28.0993C33.7065 26.8915 35.196 25.6132 36.8654 24.665C38.7163 23.6152 40.7206 22.7969 42.7295 22.0741C44.7713 21.3403 46.8913 20.8192 48.9926 20.2654C49.6059 20.1042 49.7733 19.8163 49.7467 19.2296C49.6825 17.8575 49.6638 16.4837 49.6325 15.1116C49.6278 14.9129 49.6512 14.7126 49.67 14.3371V14.334Z" fill="white"/>
<path opacity="0.5" d="M22.6198 84.5129C23.7072 78.3061 24.768 72.2511 25.8616 66.0115C31.8853 68.0204 37.7291 69.9699 43.7574 71.9804C42.6497 72.6376 41.6546 73.2603 40.6282 73.8282C39.1669 74.6371 39.1356 74.6418 40.3169 75.8215C42.3086 77.8085 44.668 79.237 47.2292 80.3807C50.1691 81.6934 53.2623 82.2254 56.44 82.2145C59.8164 82.2019 63.1349 81.7122 66.178 80.1288C67.7817 79.2949 69.412 78.45 70.8452 77.3658C72.1907 76.3456 73.2922 75.0032 74.5032 73.8047C74.8114 73.4996 75.1306 73.2055 75.5186 72.8347C75.7956 74.1818 76.0631 75.4836 76.3291 76.7853C76.6827 78.5157 77.041 80.2446 77.3852 81.9782C77.4978 82.543 77.8233 82.6197 78.2989 82.4445C79.8838 81.8609 81.4672 81.2741 83.0553 80.7015C84.2428 80.2728 85.4381 79.8644 86.851 79.37C86.2705 80.2399 85.8903 80.9769 85.3568 81.5808C84.1254 82.9733 82.8378 84.3173 81.5407 85.6488C79.754 87.484 77.6605 88.9391 75.4889 90.2643C72.3269 92.1935 68.9192 93.5891 65.3206 94.4621C62.5967 95.1224 59.832 95.476 57.0111 95.5354C53.8975 95.6012 50.8591 95.1427 47.8535 94.4825C46.2686 94.1351 44.7353 93.5077 43.2192 92.9054C41.4231 92.1903 39.5753 91.5269 37.9262 90.5444C36.0987 89.4554 34.3965 88.1161 32.7756 86.7268C31.128 85.3155 29.6276 83.7306 28.1084 82.1769C27.664 81.7232 27.3323 81.72 26.8364 82.033C25.6754 82.7668 24.491 83.4614 23.3129 84.1686C23.1424 84.2719 22.9562 84.3501 22.6214 84.5191L22.6198 84.5129Z" fill="white"/>
<path d="M50.0835 50.5856C51.7884 50.5856 53.099 51.1191 54.0153 52.1861C54.9315 53.2532 55.3896 54.7841 55.3896 56.779C55.3896 58.7622 54.9315 60.2932 54.0153 61.3718C53.099 62.4388 51.7884 62.9723 50.0835 62.9723C48.367 62.9723 47.0449 62.4388 46.117 61.3718C45.2008 60.2932 44.7426 58.7622 44.7426 56.779C44.7426 54.7841 45.2008 53.2532 46.117 52.1861C47.0449 51.1191 48.367 50.5856 50.0835 50.5856ZM50.0835 52.6907C49.2137 52.6907 48.5758 53.0154 48.1699 53.6649C47.7639 54.3144 47.561 55.3524 47.561 56.779C47.561 58.1939 47.7639 59.2319 48.1699 59.893C48.5758 60.5425 49.2137 60.8673 50.0835 60.8673C50.9302 60.8673 51.5565 60.5425 51.9624 59.893C52.3683 59.2319 52.5713 58.1939 52.5713 56.779C52.5713 55.3524 52.3683 54.3144 51.9624 53.6649C51.5565 53.0154 50.9302 52.6907 50.0835 52.6907ZM66.0032 60.5715V62.8679H56.8523V60.9716L61.3582 56.3266C61.7641 55.9207 62.0831 55.5264 62.315 55.1436C62.5586 54.7493 62.6804 54.4072 62.6804 54.1172C62.6804 53.7345 62.5296 53.4387 62.228 53.23C61.9381 53.0096 61.5322 52.8994 61.0102 52.8994C60.4883 52.8994 59.9316 53.0328 59.3401 53.2995C58.7486 53.5663 58.1745 53.9374 57.6178 54.413L56.5392 52.3601C58.1397 51.1655 59.7635 50.5682 61.4104 50.5682C62.2222 50.5682 62.9413 50.7016 63.5676 50.9683C64.1939 51.2235 64.681 51.5888 65.029 52.0644C65.3769 52.5283 65.5509 53.0734 65.5509 53.6997C65.5509 54.3144 65.3479 54.9523 64.942 55.6134C64.536 56.2744 63.9619 56.9877 63.2197 57.7532L60.4187 60.5715H66.0032Z" fill="#1A1A1A"/>
</svg>
