<svg width="28" height="28" viewBox="0 0 28 28" fill="none" xmlns="http://www.w3.org/2000/svg">
<path d="M14 0C8.40848 0 3.85947 4.54902 3.85947 10.1405C3.85947 17.0797 12.9343 27.2668 13.3206 27.6971C13.6835 28.1013 14.3171 28.1006 14.6794 27.6971C15.0658 27.2668 24.1405 17.0797 24.1405 10.1405C24.1404 4.54902 19.5915 0 14 0ZM14 15.2424C11.1868 15.2424 8.8981 12.9537 8.8981 10.1405C8.8981 7.32725 11.1868 5.03858 14 5.03858C16.8132 5.03858 19.1019 7.3273 19.1019 10.1405C19.1019 12.9538 16.8132 15.2424 14 15.2424Z" fill="#EB1B24"/>
</svg>
