<svg width="112" height="113" viewBox="0 0 112 113" fill="none" xmlns="http://www.w3.org/2000/svg">
<circle cx="55.845" cy="56.6677" r="55.845" fill="#00B536"/>
<path opacity="0.5" d="M96.9223 72.9963C90.9751 75.0805 85.1733 77.1145 79.1963 79.2112C78.004 72.9728 76.8493 66.9223 75.657 60.6808C76.7726 61.327 77.8022 61.8903 78.7989 62.5068C80.218 63.3861 80.2383 63.4112 80.689 61.8042C81.4494 59.0958 81.5417 56.3388 81.2882 53.5443C80.9972 50.3368 79.9489 47.378 78.3858 44.6117C76.7241 41.6716 74.676 39.0164 71.8064 37.1341C70.2949 36.1421 68.7616 35.1329 67.114 34.4131C65.5665 33.7372 63.8563 33.4337 62.2197 32.9627C61.8035 32.8422 61.3904 32.7092 60.8772 32.5512C61.9177 31.6515 62.9222 30.7815 63.9283 29.9132C65.2645 28.7584 66.5992 27.6006 67.9417 26.4537C68.3798 26.0797 68.2875 25.7574 67.901 25.4288C66.618 24.332 65.3318 23.2367 64.0551 22.1305C63.1006 21.3028 62.1602 20.461 61.0384 19.469C62.0805 19.5504 62.9113 19.5222 63.6968 19.6927C65.5133 20.087 67.3142 20.5533 69.1105 21.0337C71.5842 21.6955 73.878 22.8111 76.0951 24.0582C79.3246 25.8747 82.2067 28.1654 84.7274 30.8786C86.6347 32.9314 88.2948 35.172 89.7249 37.6035C91.3036 40.2885 92.3895 43.1628 93.2829 46.1075C93.7539 47.6596 93.9573 49.3041 94.1717 50.922C94.4251 52.8387 94.7506 54.7757 94.6989 56.694C94.6411 58.822 94.3062 60.9609 93.8869 63.0544C93.4597 65.1808 92.8104 67.2649 92.1986 69.3506C92.0203 69.9593 92.1798 70.2519 92.6962 70.5304C93.9041 71.1844 95.0901 71.8791 96.2808 72.5613C96.4545 72.6599 96.6125 72.7835 96.9239 72.9947L96.9223 72.9963Z" fill="white"/>
<path opacity="0.5" d="M49.9045 14.0193C54.7628 18.0327 59.5022 21.949 64.3855 25.9843C59.6602 30.2277 55.0789 34.3443 50.3505 38.5908C50.327 37.3031 50.2769 36.1296 50.291 34.9577C50.3114 33.2882 50.3223 33.2585 48.7123 33.7028C46.0007 34.4507 43.5927 35.7963 41.3318 37.458C38.736 39.3654 36.7442 41.7906 35.1842 44.5585C33.5257 47.5001 32.3115 50.6263 32.1832 54.0545C32.1159 55.8617 32.0439 57.6954 32.2786 59.4776C32.4993 61.1518 33.1236 62.7728 33.5664 64.4173C33.679 64.8366 33.7776 65.2591 33.9074 65.7801C32.5994 65.3545 31.3367 64.943 30.0725 64.5315C28.3936 63.9839 26.7131 63.4409 25.0358 62.8839C24.4882 62.7024 24.2613 62.948 24.1784 63.4487C23.9014 65.1151 23.6292 66.7815 23.3429 68.4463C23.1285 69.6902 22.8922 70.9325 22.6247 72.4049C22.1553 71.4708 21.7031 70.7745 21.4418 70.0125C20.841 68.2538 20.309 66.4701 19.7926 64.6848C19.0807 62.2236 18.8507 59.6841 18.7725 57.1431C18.6583 53.4395 19.1308 49.7892 20.1509 46.228C20.9223 43.5336 21.9832 40.9551 23.3256 38.4751C24.8074 35.7353 26.7084 33.321 28.7675 31.0351C29.8534 29.8287 31.1568 28.8054 32.4304 27.7852C33.9403 26.5773 35.4299 25.299 37.0994 24.3508C38.9504 23.3009 40.9547 22.4826 42.9637 21.7597C45.0056 21.0259 47.1257 20.5048 49.227 19.9509C49.8404 19.7898 50.0078 19.5019 49.9812 18.9151C49.9171 17.5429 49.8983 16.1691 49.867 14.7969C49.8623 14.5982 49.8858 14.3979 49.9045 14.0224V14.0193Z" fill="white"/>
<path d="M22.8526 84.2012C23.9401 77.9941 25.0009 71.9389 26.0946 65.699C32.1186 67.708 37.9626 69.6576 43.9912 71.6682C42.8834 72.3254 41.8883 72.9481 40.8619 73.5161C39.4005 74.325 39.3692 74.3297 40.5505 75.5094C42.5423 77.4966 44.9019 78.9251 47.4632 80.0689C50.4032 81.3816 53.4965 81.9136 56.6744 81.9027C60.0509 81.8902 63.3695 81.4004 66.4128 79.817C68.0166 78.983 69.647 78.1381 71.0802 77.0538C72.4258 76.0336 73.5273 74.6911 74.7384 73.4926C75.0466 73.1875 75.3658 72.8933 75.7538 72.5225C76.0308 73.8697 76.2983 75.1715 76.5643 76.4733C76.9179 78.2038 77.2763 79.9328 77.6205 81.6664C77.7331 82.2313 78.0586 82.3079 78.5342 82.1327C80.1192 81.5491 81.7027 80.9623 83.2908 80.3897C84.4784 79.9609 85.6738 79.5526 87.0867 79.0581C86.5062 79.9281 86.126 80.665 85.5924 81.269C84.361 82.6616 83.0733 84.0056 81.7762 85.3371C79.9894 87.1725 77.8959 88.6276 75.7241 89.9529C72.5619 91.8821 69.1541 93.2778 65.5554 94.1509C62.8313 94.8112 60.0665 95.1648 57.2455 95.2243C54.1318 95.29 51.0932 94.8315 48.0875 94.1713C46.5025 93.8239 44.9691 93.1965 43.453 92.5941C41.6567 91.879 39.8089 91.2156 38.1597 90.233C36.3322 89.144 34.6299 87.8046 33.0089 86.4152C31.3613 85.0039 29.8608 83.4188 28.3415 81.8651C27.8971 81.4114 27.5654 81.4083 27.0694 81.7212C25.9084 82.455 24.724 83.1497 23.5458 83.857C23.3752 83.9602 23.189 84.0385 22.8542 84.2074L22.8526 84.2012Z" fill="white"/>
<path d="M50.8497 50.5856C52.5546 50.5856 53.8652 51.1191 54.7814 52.1861C55.6977 53.2532 56.1558 54.7841 56.1558 56.779C56.1558 58.7622 55.6977 60.2932 54.7814 61.3718C53.8652 62.4388 52.5546 62.9723 50.8497 62.9723C49.1332 62.9723 47.811 62.4388 46.8832 61.3718C45.9669 60.2932 45.5088 58.7622 45.5088 56.779C45.5088 54.7841 45.9669 53.2532 46.8832 52.1861C47.811 51.1191 49.1332 50.5856 50.8497 50.5856ZM50.8497 52.6907C49.9798 52.6907 49.342 53.0154 48.936 53.6649C48.5301 54.3144 48.3271 55.3524 48.3271 56.779C48.3271 58.1939 48.5301 59.2319 48.936 59.893C49.342 60.5425 49.9798 60.8673 50.8497 60.8673C51.6964 60.8673 52.3227 60.5425 52.7286 59.893C53.1345 59.2319 53.3375 58.1939 53.3375 56.779C53.3375 55.3524 53.1345 54.3144 52.7286 53.6649C52.3227 53.0154 51.6964 52.6907 50.8497 52.6907ZM63.1856 55.7177C64.2526 55.8569 65.0992 56.2165 65.7255 56.7964C66.3634 57.3763 66.6824 58.1301 66.6824 59.058C66.6824 59.8234 66.4794 60.5077 66.0735 61.1108C65.6791 61.7023 65.1108 62.1662 64.3686 62.5026C63.6379 62.8273 62.7796 62.9897 61.7938 62.9897C60.9471 62.9897 60.1005 62.8621 59.2538 62.607C58.4188 62.3402 57.7113 61.9923 57.1314 61.5631L58.1926 59.5277C58.6913 59.9452 59.2306 60.2642 59.8105 60.4845C60.3904 60.7049 60.9819 60.8151 61.585 60.8151C62.3505 60.8151 62.942 60.6643 63.3595 60.3627C63.7771 60.0496 63.9858 59.6205 63.9858 59.0754C63.9858 58.5303 63.7771 58.1185 63.3595 57.8402C62.942 57.5502 62.3447 57.4052 61.5676 57.4052H59.6018V55.8395L62.6463 52.8994H57.7577L57.7403 50.6726H66.0735V52.3253L62.5593 55.6308L63.1856 55.7177Z" fill="white"/>
</svg>
