<svg width="112" height="113" viewBox="0 0 112 113" fill="none" xmlns="http://www.w3.org/2000/svg">
<circle cx="55.845" cy="56.6677" r="55.845" fill="#EB1B24"/>
<path opacity="0.5" d="M96.7819 73.3084C90.8349 75.3924 85.0334 77.4264 79.0566 79.5229C77.8644 73.2849 76.7098 67.2346 75.5175 60.9934C76.6331 61.6396 77.6626 62.2028 78.6592 62.8193C80.0783 63.6986 80.0987 63.7236 80.5493 62.1168C81.3096 59.4085 81.402 56.6516 81.1485 53.8573C80.8575 50.6498 79.8092 47.6912 78.2462 44.925C76.5846 41.9851 74.5365 39.33 71.6671 37.4478C70.1557 36.4558 68.6224 35.4466 66.9749 34.7269C65.4275 34.051 63.7174 33.7475 62.0808 33.2765C61.6646 33.1561 61.2516 33.0231 60.7384 32.8651C61.7789 31.9654 62.7833 31.0955 63.7894 30.2271C65.1255 29.0725 66.4601 27.9147 67.8025 26.7678C68.2406 26.3939 68.1483 26.0716 67.7619 25.743C66.4789 24.6462 65.1928 23.551 63.9161 22.4448C62.9617 21.6172 62.0214 20.7754 60.8996 19.7834C61.9416 19.8648 62.7724 19.8366 63.5578 20.0072C65.3743 20.4015 67.1751 20.8677 68.9713 21.348C71.4449 22.0099 73.7386 23.1254 75.9556 24.3724C79.1849 26.1889 82.0669 28.4795 84.5875 31.1925C86.4947 33.2453 88.1547 35.4858 89.5848 37.9171C91.1634 40.602 92.2493 43.4762 93.1427 46.4207C93.6136 47.9728 93.817 49.6172 94.0313 51.235C94.2848 53.1516 94.6102 55.0886 94.5586 57.0068C94.5007 59.1347 94.1659 61.2735 93.7466 63.3669C93.3194 65.4932 92.6701 67.5772 92.0584 69.6628C91.88 70.2715 92.0396 70.5641 92.5559 70.8426C93.7638 71.4966 94.9498 72.1912 96.1404 72.8734C96.3141 72.972 96.4721 73.0956 96.7835 73.3068L96.7819 73.3084Z" fill="white"/>
<path d="M49.7657 14.334C54.6238 18.3472 59.3629 22.2634 64.246 26.2985C59.521 30.5417 54.9398 34.6581 50.2116 38.9044C50.1882 37.6168 50.1381 36.4433 50.1522 35.2714C50.1725 33.602 50.1835 33.5723 48.5735 34.0166C45.8621 34.7645 43.4542 36.1101 41.1933 37.7717C38.5977 39.6789 36.6059 42.104 35.0461 44.8718C33.3876 47.8133 32.1735 50.9393 32.0452 54.3674C31.9779 56.1745 31.9059 58.0082 32.1406 59.7903C32.3612 61.4644 32.9855 63.0853 33.4283 64.7297C33.5409 65.149 33.6395 65.5715 33.7693 66.0925C32.4613 65.6669 31.1987 65.2554 29.9345 64.8439C28.2557 64.2963 26.5754 63.7534 24.8981 63.1964C24.3505 63.0149 24.1236 63.2605 24.0407 63.7612C23.7638 65.4275 23.4915 67.0938 23.2052 68.7585C22.9909 70.0024 22.7546 71.2447 22.4871 72.717C22.0177 71.7829 21.5655 71.0867 21.3043 70.3247C20.7034 68.5661 20.1715 66.7825 19.6552 64.9972C18.9433 62.5361 18.7133 59.9968 18.6351 57.4559C18.5208 53.7525 18.9934 50.1023 20.0135 46.5412C20.7848 43.847 21.8456 41.2685 23.188 38.7887C24.6697 36.049 26.5707 33.6349 28.6297 31.349C29.7155 30.1427 31.0188 29.1194 32.2924 28.0993C33.8022 26.8915 35.2917 25.6132 36.9611 24.665C38.812 23.6152 40.8163 22.7969 42.8252 22.0741C44.867 21.3403 46.987 20.8192 49.0883 20.2654C49.7016 20.1042 49.869 19.8163 49.8424 19.2296C49.7782 17.8575 49.7595 16.4837 49.7282 15.1116C49.7235 14.9129 49.747 14.7126 49.7657 14.3371V14.334Z" fill="white"/>
<path opacity="0.5" d="M22.7159 84.5129C23.8033 78.3061 24.8641 72.2511 25.9578 66.0115C31.9815 68.0204 37.8252 69.9699 43.8536 71.9804C42.7458 72.6376 41.7508 73.2603 40.7244 73.8282C39.2631 74.6371 39.2318 74.6418 40.413 75.8215C42.4048 77.8085 44.7642 79.237 47.3254 80.3807C50.2653 81.6934 53.3585 82.2254 56.5361 82.2145C59.9125 82.2019 63.231 81.7122 66.2742 80.1288C67.8779 79.2949 69.5082 78.45 70.9413 77.3658C72.2869 76.3456 73.3884 75.0032 74.5993 73.8047C74.9076 73.4996 75.2267 73.2055 75.6148 72.8347C75.8917 74.1818 76.1592 75.4836 76.4252 76.7853C76.7788 78.5157 77.1371 80.2446 77.4813 81.9782C77.594 82.543 77.9194 82.6197 78.395 82.4445C79.98 81.8609 81.5633 81.2741 83.1514 80.7015C84.3389 80.2728 85.5343 79.8644 86.9471 79.37C86.3666 80.2399 85.9864 80.9769 85.4529 81.5808C84.2216 82.9733 82.9339 84.3173 81.6369 85.6488C79.8501 87.484 77.7567 88.9391 75.585 90.2643C72.423 92.1935 69.0153 93.5891 65.4168 94.4621C62.6928 95.1224 59.9282 95.476 57.1072 95.5354C53.9937 95.6012 50.9552 95.1427 47.9497 94.4825C46.3647 94.1351 44.8314 93.5077 43.3153 92.9054C41.5192 92.1903 39.6714 91.5269 38.0223 90.5444C36.1949 89.4554 34.4926 88.1161 32.8717 86.7268C31.2242 85.3155 29.7237 83.7306 28.2045 82.1769C27.7602 81.7232 27.4285 81.72 26.9325 82.033C25.7716 82.7668 24.5872 83.4614 23.4091 84.1686C23.2385 84.2719 23.0523 84.3501 22.7175 84.5191L22.7159 84.5129Z" fill="white"/>
<path d="M53.0642 50.5856C54.7691 50.5856 56.0797 51.1191 56.9959 52.1861C57.9122 53.2532 58.3703 54.7841 58.3703 56.779C58.3703 58.7622 57.9122 60.2932 56.9959 61.3718C56.0797 62.4388 54.7691 62.9723 53.0642 62.9723C51.3477 62.9723 50.0255 62.4388 49.0977 61.3718C48.1814 60.2932 47.7233 58.7622 47.7233 56.779C47.7233 54.7841 48.1814 53.2532 49.0977 52.1861C50.0255 51.1191 51.3477 50.5856 53.0642 50.5856ZM53.0642 52.6907C52.1943 52.6907 51.5564 53.0154 51.1505 53.6649C50.7446 54.3144 50.5416 55.3524 50.5416 56.779C50.5416 58.1939 50.7446 59.2319 51.1505 59.893C51.5564 60.5425 52.1943 60.8673 53.0642 60.8673C53.9108 60.8673 54.5371 60.5425 54.9431 59.893C55.349 59.2319 55.552 58.1939 55.552 56.779C55.552 55.3524 55.349 54.3144 54.9431 53.6649C54.5371 53.0154 53.9108 52.6907 53.0642 52.6907ZM59.0501 50.69H64.2518V62.8679H61.5031V53.0212H59.0501V50.69Z" fill="white"/>
</svg>
